<mxfile host="Electron" modified="2024-08-13T10:56:26.459Z" agent="Mozilla/5.0 (Windows NT 10.0; Win64; x64) AppleWebKit/537.36 (KHTML, like Gecko) draw.io/23.1.5 Chrome/120.0.6099.109 Electron/28.1.0 Safari/537.36" etag="MFlKv--e3lt40NpdbLcx" version="23.1.5" type="device">
  <diagram name="페이지-1" id="tj7FeR4d-j4yna7NObZu">
    <mxGraphModel dx="875" dy="518" grid="1" gridSize="10" guides="1" tooltips="1" connect="1" arrows="1" fold="1" page="1" pageScale="1" pageWidth="827" pageHeight="1169" math="0" shadow="0">
      <root>
        <mxCell id="0" />
        <mxCell id="1" parent="0" />
        <mxCell id="axy1WbRlvUH81oWtrqX2-9" style="edgeStyle=orthogonalEdgeStyle;rounded=0;orthogonalLoop=1;jettySize=auto;html=1;entryX=0.5;entryY=0;entryDx=0;entryDy=0;" parent="1" source="axy1WbRlvUH81oWtrqX2-1" target="axy1WbRlvUH81oWtrqX2-6" edge="1">
          <mxGeometry relative="1" as="geometry" />
        </mxCell>
        <mxCell id="axy1WbRlvUH81oWtrqX2-1" value="시작" style="rounded=1;whiteSpace=wrap;html=1;arcSize=50;" parent="1" vertex="1">
          <mxGeometry x="248.5" y="150" width="80" height="40" as="geometry" />
        </mxCell>
        <mxCell id="axy1WbRlvUH81oWtrqX2-15" style="edgeStyle=orthogonalEdgeStyle;rounded=0;orthogonalLoop=1;jettySize=auto;html=1;entryX=0.5;entryY=0;entryDx=0;entryDy=0;" parent="1" source="axy1WbRlvUH81oWtrqX2-4" target="axy1WbRlvUH81oWtrqX2-5" edge="1">
          <mxGeometry relative="1" as="geometry" />
        </mxCell>
        <mxCell id="axy1WbRlvUH81oWtrqX2-4" value="루프 시작" style="rhombus;whiteSpace=wrap;html=1;" parent="1" vertex="1">
          <mxGeometry x="228.5" y="270" width="120" height="40" as="geometry" />
        </mxCell>
        <mxCell id="axy1WbRlvUH81oWtrqX2-17" style="edgeStyle=orthogonalEdgeStyle;rounded=0;orthogonalLoop=1;jettySize=auto;html=1;entryX=0.5;entryY=0;entryDx=0;entryDy=0;" parent="1" source="axy1WbRlvUH81oWtrqX2-5" target="axy1WbRlvUH81oWtrqX2-16" edge="1">
          <mxGeometry relative="1" as="geometry" />
        </mxCell>
        <mxCell id="axy1WbRlvUH81oWtrqX2-5" value="데이터 읽기&lt;br&gt;(IMU, 버튼, 마우스 휠 등)" style="rounded=0;whiteSpace=wrap;html=1;" parent="1" vertex="1">
          <mxGeometry x="213.38" y="330" width="150.25" height="40" as="geometry" />
        </mxCell>
        <mxCell id="MJc0CGbgMI9O_oGch9rw-1" style="edgeStyle=orthogonalEdgeStyle;rounded=0;orthogonalLoop=1;jettySize=auto;html=1;entryX=0.5;entryY=0;entryDx=0;entryDy=0;" edge="1" parent="1" source="axy1WbRlvUH81oWtrqX2-6" target="axy1WbRlvUH81oWtrqX2-4">
          <mxGeometry relative="1" as="geometry" />
        </mxCell>
        <mxCell id="axy1WbRlvUH81oWtrqX2-6" value="페리페럴 및 센서 초기화&lt;br&gt;(GPIO, UART, IMU)" style="rounded=0;whiteSpace=wrap;html=1;" parent="1" vertex="1">
          <mxGeometry x="214.75" y="210" width="147.5" height="40" as="geometry" />
        </mxCell>
        <mxCell id="axy1WbRlvUH81oWtrqX2-20" style="edgeStyle=orthogonalEdgeStyle;rounded=0;orthogonalLoop=1;jettySize=auto;html=1;entryX=0.5;entryY=0;entryDx=0;entryDy=0;" parent="1" source="axy1WbRlvUH81oWtrqX2-16" target="axy1WbRlvUH81oWtrqX2-18" edge="1">
          <mxGeometry relative="1" as="geometry" />
        </mxCell>
        <mxCell id="axy1WbRlvUH81oWtrqX2-16" value="데이터 처리&lt;br&gt;(IMU 데이터, 각 버튼 기능, 마우스 휠&amp;nbsp; 등)" style="rounded=0;whiteSpace=wrap;html=1;" parent="1" vertex="1">
          <mxGeometry x="202.26" y="390" width="172.5" height="50" as="geometry" />
        </mxCell>
        <mxCell id="axy1WbRlvUH81oWtrqX2-56" style="edgeStyle=orthogonalEdgeStyle;rounded=0;orthogonalLoop=1;jettySize=auto;html=1;entryX=0.5;entryY=0;entryDx=0;entryDy=0;" parent="1" source="axy1WbRlvUH81oWtrqX2-18" target="axy1WbRlvUH81oWtrqX2-55" edge="1">
          <mxGeometry relative="1" as="geometry" />
        </mxCell>
        <mxCell id="axy1WbRlvUH81oWtrqX2-18" value="블루투스 데이터 전송" style="rounded=0;whiteSpace=wrap;html=1;" parent="1" vertex="1">
          <mxGeometry x="223.51" y="460" width="130" height="40" as="geometry" />
        </mxCell>
        <mxCell id="axy1WbRlvUH81oWtrqX2-25" value="" style="endArrow=classic;html=1;rounded=0;entryX=0;entryY=0.5;entryDx=0;entryDy=0;exitX=0;exitY=0.5;exitDx=0;exitDy=0;" parent="1" source="axy1WbRlvUH81oWtrqX2-55" target="axy1WbRlvUH81oWtrqX2-4" edge="1">
          <mxGeometry width="50" height="50" relative="1" as="geometry">
            <mxPoint x="186" y="560" as="sourcePoint" />
            <mxPoint x="226" y="290" as="targetPoint" />
            <Array as="points">
              <mxPoint x="186" y="540" />
              <mxPoint x="186" y="290" />
            </Array>
          </mxGeometry>
        </mxCell>
        <mxCell id="axy1WbRlvUH81oWtrqX2-48" style="edgeStyle=orthogonalEdgeStyle;rounded=0;orthogonalLoop=1;jettySize=auto;html=1;entryX=0.5;entryY=0;entryDx=0;entryDy=0;" parent="1" source="axy1WbRlvUH81oWtrqX2-29" target="axy1WbRlvUH81oWtrqX2-46" edge="1">
          <mxGeometry relative="1" as="geometry" />
        </mxCell>
        <mxCell id="axy1WbRlvUH81oWtrqX2-29" value="블루투스 모듈 페어링" style="rounded=1;whiteSpace=wrap;html=1;arcSize=50;" parent="1" vertex="1">
          <mxGeometry x="488.5" y="150" width="137.5" height="40" as="geometry" />
        </mxCell>
        <mxCell id="axy1WbRlvUH81oWtrqX2-64" style="edgeStyle=orthogonalEdgeStyle;rounded=0;orthogonalLoop=1;jettySize=auto;html=1;entryX=0.5;entryY=0;entryDx=0;entryDy=0;" parent="1" source="axy1WbRlvUH81oWtrqX2-39" target="axy1WbRlvUH81oWtrqX2-50" edge="1">
          <mxGeometry relative="1" as="geometry" />
        </mxCell>
        <mxCell id="axy1WbRlvUH81oWtrqX2-39" value="블루투스 데이터 수신" style="rounded=0;whiteSpace=wrap;html=1;" parent="1" vertex="1">
          <mxGeometry x="473.06" y="270" width="167.5" height="40" as="geometry" />
        </mxCell>
        <mxCell id="axy1WbRlvUH81oWtrqX2-49" style="edgeStyle=orthogonalEdgeStyle;rounded=0;orthogonalLoop=1;jettySize=auto;html=1;entryX=0.5;entryY=0;entryDx=0;entryDy=0;" parent="1" source="axy1WbRlvUH81oWtrqX2-46" target="axy1WbRlvUH81oWtrqX2-39" edge="1">
          <mxGeometry relative="1" as="geometry" />
        </mxCell>
        <mxCell id="axy1WbRlvUH81oWtrqX2-46" value="루프 시작" style="rhombus;whiteSpace=wrap;html=1;" parent="1" vertex="1">
          <mxGeometry x="497.25" y="210" width="120" height="40" as="geometry" />
        </mxCell>
        <mxCell id="MJc0CGbgMI9O_oGch9rw-4" style="edgeStyle=orthogonalEdgeStyle;rounded=0;orthogonalLoop=1;jettySize=auto;html=1;entryX=0.5;entryY=0;entryDx=0;entryDy=0;" edge="1" parent="1" source="axy1WbRlvUH81oWtrqX2-50" target="MJc0CGbgMI9O_oGch9rw-3">
          <mxGeometry relative="1" as="geometry" />
        </mxCell>
        <mxCell id="axy1WbRlvUH81oWtrqX2-50" value="수신한 데이터를 USB HID 파일 형식으로 변환" style="rounded=0;whiteSpace=wrap;html=1;" parent="1" vertex="1">
          <mxGeometry x="482.63" y="330" width="148.37" height="40" as="geometry" />
        </mxCell>
        <mxCell id="axy1WbRlvUH81oWtrqX2-52" value="" style="endArrow=classic;html=1;rounded=0;entryX=0;entryY=0.5;entryDx=0;entryDy=0;exitX=0.5;exitY=1;exitDx=0;exitDy=0;" parent="1" source="MJc0CGbgMI9O_oGch9rw-3" edge="1" target="axy1WbRlvUH81oWtrqX2-46">
          <mxGeometry width="50" height="50" relative="1" as="geometry">
            <mxPoint x="560" y="470" as="sourcePoint" />
            <mxPoint x="496" y="250" as="targetPoint" />
            <Array as="points">
              <mxPoint x="557" y="450" />
              <mxPoint x="450" y="450" />
              <mxPoint x="450" y="230" />
            </Array>
          </mxGeometry>
        </mxCell>
        <mxCell id="MJc0CGbgMI9O_oGch9rw-2" style="edgeStyle=orthogonalEdgeStyle;rounded=0;orthogonalLoop=1;jettySize=auto;html=1;" edge="1" parent="1" source="axy1WbRlvUH81oWtrqX2-55" target="axy1WbRlvUH81oWtrqX2-58">
          <mxGeometry relative="1" as="geometry" />
        </mxCell>
        <mxCell id="axy1WbRlvUH81oWtrqX2-55" value="종료 조건 확인" style="rhombus;whiteSpace=wrap;html=1;" parent="1" vertex="1">
          <mxGeometry x="220.39" y="520" width="136.25" height="40" as="geometry" />
        </mxCell>
        <mxCell id="axy1WbRlvUH81oWtrqX2-58" value="종료" style="rounded=1;whiteSpace=wrap;html=1;arcSize=50;" parent="1" vertex="1">
          <mxGeometry x="248.5" y="584.5" width="80" height="40" as="geometry" />
        </mxCell>
        <mxCell id="axy1WbRlvUH81oWtrqX2-65" value="블루투스 에어 마우스 파트" style="text;html=1;align=center;verticalAlign=middle;whiteSpace=wrap;rounded=0;" parent="1" vertex="1">
          <mxGeometry x="245.94" y="110" width="85.12" height="30" as="geometry" />
        </mxCell>
        <mxCell id="axy1WbRlvUH81oWtrqX2-67" value="블루투스 동글 파트" style="text;html=1;align=center;verticalAlign=middle;whiteSpace=wrap;rounded=0;" parent="1" vertex="1">
          <mxGeometry x="515.75" y="110" width="82.12" height="30" as="geometry" />
        </mxCell>
        <mxCell id="MJc0CGbgMI9O_oGch9rw-3" value="USB HID 데이터 전송" style="rounded=0;whiteSpace=wrap;html=1;" vertex="1" parent="1">
          <mxGeometry x="483.07" y="390" width="148.37" height="40" as="geometry" />
        </mxCell>
      </root>
    </mxGraphModel>
  </diagram>
</mxfile>
